<svg width="512" height="512" viewBox="0 0 512 512" fill="none" xmlns="http://www.w3.org/2000/svg">
<rect width="512" height="512" rx="256" fill="#0D0D0D"/>
<path d="M205.48 297L145.28 271.52V255.98L205.48 230.64L210.38 245.76L164.74 263.82L210.38 281.88L205.48 297ZM250.36 306.1C246.16 306.1 242.333 305.68 238.88 304.84C235.52 304.093 232.58 303.067 230.06 301.76C227.54 300.453 225.347 299.1 223.48 297.7L230.2 283.7C232.627 285.287 235.427 286.92 238.6 288.6C241.867 290.187 245.32 290.98 248.96 290.98C254.467 290.98 258.807 289.487 261.98 286.5C265.153 283.513 266.74 278.24 266.74 270.68V221.4H234.12V206.98H284.24V271.94C284.24 278.193 283.167 283.933 281.02 289.16C278.873 294.293 275.327 298.4 270.38 301.48C265.433 304.56 258.76 306.1 250.36 306.1ZM306.3 297.14L301.4 282.02L347.18 263.82L301.4 245.76L306.3 230.78L366.64 256.12V271.66L306.3 297.14Z" fill="#C8A96E"/>
</svg>
