<svg width="1600" height="1600" viewBox="0 0 1600 1600" fill="none" xmlns="http://www.w3.org/2000/svg">
<g clip-path="url(#clip0_2109_56)">
<mask id="mask0_2109_56" style="mask-type:luminance" maskUnits="userSpaceOnUse" x="0" y="0" width="1600" height="1600">
<path d="M1600 0H0V1600H1600V0Z" fill="white"/>
</mask>
<g mask="url(#mask0_2109_56)">
<mask id="mask1_2109_56" style="mask-type:alpha" maskUnits="userSpaceOnUse" x="-346" y="-1781" width="3551" height="2974">
<path d="M2171.57 1135.64C2111.19 1135.64 2111.19 1191.64 2050.81 1191.64C1990.43 1191.64 1990.43 1135.64 1930.05 1135.64C1869.67 1135.64 1869.67 1191.64 1809.3 1191.64C1748.92 1191.64 1748.92 1135.64 1688.55 1135.64C1628.17 1135.64 1628.17 1191.64 1567.79 1191.64C1507.42 1191.64 1507.42 1135.64 1447.04 1135.64C1386.67 1135.64 1386.67 1191.64 1326.29 1191.64C1265.92 1191.64 1265.92 1135.64 1205.54 1135.64C1145.16 1135.64 1145.16 1191.64 1084.78 1191.64C1024.4 1191.64 1024.4 1135.64 964.02 1135.64C903.644 1135.64 903.642 1191.64 843.266 1191.64C782.892 1191.64 782.892 1135.64 722.518 1135.64C662.142 1135.64 662.142 1191.64 601.766 1191.64C541.39 1191.64 541.39 1135.64 481.012 1135.64C420.638 1135.64 420.638 1191.64 360.264 1191.64C299.888 1191.64 299.886 1135.64 239.51 1135.64C179.134 1135.64 -344.164 -967.972 -344.164 -967.972L3203.84 -1779.97C3203.84 -1779.97 2231.95 1135.64 2171.57 1135.64Z" fill="#373D3B"/>
<path d="M2171.57 1135.64C2111.19 1135.64 2111.19 1191.64 2050.81 1191.64C1990.43 1191.64 1990.43 1135.64 1930.05 1135.64C1869.67 1135.64 1869.67 1191.64 1809.3 1191.64C1748.92 1191.64 1748.92 1135.64 1688.55 1135.64C1628.17 1135.64 1628.17 1191.64 1567.79 1191.64C1507.42 1191.64 1507.42 1135.64 1447.04 1135.64C1386.67 1135.64 1386.67 1191.64 1326.29 1191.64C1265.92 1191.64 1265.92 1135.64 1205.54 1135.64C1145.16 1135.64 1145.16 1191.64 1084.78 1191.64C1024.4 1191.64 1024.4 1135.64 964.02 1135.64C903.644 1135.64 903.642 1191.64 843.266 1191.64C782.892 1191.64 782.892 1135.64 722.518 1135.64C662.142 1135.64 662.142 1191.64 601.766 1191.64C541.39 1191.64 541.39 1135.64 481.012 1135.64C420.638 1135.64 420.638 1191.64 360.264 1191.64C299.888 1191.64 299.886 1135.64 239.51 1135.64C179.134 1135.64 -344.164 -967.972 -344.164 -967.972L3203.84 -1779.97C3203.84 -1779.97 2231.95 1135.64 2171.57 1135.64Z" stroke="#373D3B" stroke-width="2" stroke-linecap="round" stroke-linejoin="round"/>
</mask>
<g mask="url(#mask1_2109_56)">
<mask id="mask2_2109_56" style="mask-type:luminance" maskUnits="userSpaceOnUse" x="167" y="307" width="1360" height="1056">
<path d="M238.07 307.281L1526.54 402.715L1455.48 1362.09L167.012 1266.65L238.07 307.281Z" fill="white"/>
</mask>
<g mask="url(#mask2_2109_56)">
<mask id="mask3_2109_56" style="mask-type:alpha" maskUnits="userSpaceOnUse" x="442" y="536" width="75" height="73">
<path d="M516.069 541.203L511.064 608.768L442.222 603.669L447.227 536.104L516.069 541.203Z" fill="#373D3B"/>
</mask>
<g mask="url(#mask3_2109_56)">
<path d="M832.646 624.503C807.387 624.985 807.67 614.65 782.477 612.784C757.28 610.917 756.691 618.896 731.494 617.029C706.297 615.163 706.888 607.185 681.691 605.319C656.49 603.452 655.901 611.431 630.7 609.564C605.499 607.697 606.09 599.719 580.889 597.853C555.688 595.986 555.099 603.964 529.898 602.098C504.697 600.231 505.286 592.253 480.085 590.386C454.88 588.52 454.291 596.498 429.086 594.631C403.881 592.764 404.559 587.157 379.635 582.964C377.317 582.574 375.156 584.267 375.33 581.924C375.503 579.58 383.482 580.171 383.655 577.827C383.828 575.488 375.85 574.895 376.024 572.555C376.197 570.212 384.175 570.805 384.349 568.461C384.523 566.115 376.545 565.523 376.718 563.177C376.892 560.831 384.87 561.422 385.044 559.077C385.218 556.729 377.24 556.138 377.414 553.791C377.588 551.439 385.566 552.032 385.74 549.68C385.914 547.329 379.666 540.729 382.022 540.685C407.281 540.204 406.999 550.539 432.192 552.405C457.389 554.271 457.977 546.293 483.174 548.159C508.371 550.026 507.78 558.004 532.977 559.87C558.178 561.737 558.767 553.758 583.968 555.625C609.169 557.491 608.578 565.47 633.779 567.336C658.98 569.203 659.569 561.224 684.77 563.091C709.971 564.957 709.382 572.936 734.583 574.802C759.788 576.669 760.377 568.691 785.582 570.558C810.787 572.425 810.109 578.032 835.033 582.224C837.351 582.615 839.512 580.922 839.338 583.265C839.165 585.609 831.187 585.018 831.013 587.361C830.84 589.701 838.818 590.294 838.644 592.633C838.471 594.977 830.493 594.384 830.319 596.728C830.145 599.073 838.123 599.666 837.95 602.012C837.776 604.357 829.798 603.766 829.624 606.112C829.45 608.46 837.428 609.051 837.255 611.398C837.08 613.75 828.648 613.981 828.952 616.318C829.55 620.921 835.002 624.459 832.646 624.503Z" fill="#373D3B"/>
<path d="M832.646 624.503C807.387 624.985 807.67 614.65 782.477 612.784C757.28 610.917 756.691 618.896 731.494 617.029C706.297 615.163 706.888 607.185 681.691 605.319C656.49 603.452 655.901 611.431 630.7 609.564C605.499 607.697 606.09 599.719 580.889 597.853C555.688 595.986 555.099 603.964 529.898 602.098C504.697 600.231 505.286 592.253 480.085 590.386C454.88 588.52 454.291 596.498 429.086 594.631C403.881 592.764 404.559 587.157 379.635 582.964C377.317 582.574 375.156 584.267 375.33 581.924C375.503 579.58 383.482 580.171 383.655 577.827C383.828 575.488 375.85 574.895 376.024 572.555C376.197 570.212 384.175 570.805 384.349 568.461C384.523 566.115 376.545 565.523 376.718 563.177C376.892 560.831 384.87 561.422 385.044 559.077C385.218 556.729 377.24 556.138 377.414 553.791C377.588 551.439 385.566 552.032 385.74 549.68C385.914 547.329 379.666 540.729 382.022 540.685C407.281 540.204 406.999 550.539 432.192 552.405C457.389 554.271 457.977 546.293 483.174 548.159C508.371 550.026 507.78 558.004 532.977 559.87C558.178 561.737 558.767 553.758 583.968 555.625C609.169 557.491 608.578 565.47 633.779 567.336C658.98 569.203 659.569 561.224 684.77 563.091C709.971 564.957 709.382 572.936 734.583 574.802C759.788 576.669 760.377 568.691 785.582 570.558C810.787 572.425 810.109 578.032 835.033 582.224C837.351 582.615 839.512 580.922 839.338 583.265C839.165 585.609 831.187 585.018 831.013 587.361C830.84 589.701 838.818 590.294 838.644 592.633C838.471 594.977 830.493 594.384 830.319 596.728C830.145 599.073 838.123 599.666 837.95 602.012C837.776 604.357 829.798 603.766 829.624 606.112C829.45 608.46 837.428 609.051 837.255 611.398C837.08 613.75 828.648 613.981 828.952 616.318C829.55 620.921 835.002 624.459 832.646 624.503Z" stroke="#373D3B" stroke-width="2" stroke-linecap="round" stroke-linejoin="round"/>
</g>
<path d="M513.734 555.748L506.459 653.971" stroke="#373D3B" stroke-width="2" stroke-linecap="round" stroke-linejoin="round"/>
<path d="M323.953 1055.55C348.343 1131.07 416.459 1188.1 500.488 1194.33L985.967 1230.28C1085.18 1237.63 1179.77 1196.59 1242.25 1123.56L323.953 1055.55Z" fill="#373D3B"/>
<path d="M1073.76 1035.76L839.83 1018.44L850.242 877.861L1084.17 895.188L1073.76 1035.76Z" stroke="#373D3B" stroke-width="2" stroke-linecap="round" stroke-linejoin="round"/>
<path d="M980.405 1028.85L839.83 1018.44L850.242 877.862L990.817 888.274L980.405 1028.85Z" fill="#373D3B"/>
<path d="M980.405 1028.85L839.83 1018.44L850.242 877.862L990.817 888.274L980.405 1028.85Z" stroke="#373D3B" stroke-width="2" stroke-linecap="round" stroke-linejoin="round"/>
<path d="M878.913 879.985L548.797 855.534L556.758 748.057L886.874 772.508L878.913 879.985Z" stroke="#373D3B" stroke-width="2" stroke-linecap="round" stroke-linejoin="round"/>
<path d="M733.854 869.241L548.797 855.535L556.758 748.057L741.815 761.764L733.854 869.241Z" fill="#373D3B"/>
<path d="M733.854 869.241L548.797 855.535L556.758 748.057L741.815 761.764L733.854 869.241Z" stroke="#373D3B" stroke-width="2" stroke-linecap="round" stroke-linejoin="round"/>
<path d="M837.704 1018.28L498.557 993.159L508.969 852.584L848.116 877.704L837.704 1018.28Z" stroke="#373D3B" stroke-width="2" stroke-linecap="round" stroke-linejoin="round"/>
<path d="M688.676 1007.24L498.557 993.159L508.969 852.584L699.088 866.666L688.676 1007.24Z" fill="#373D3B"/>
<path d="M688.676 1007.24L498.557 993.159L508.969 852.584L699.088 866.666L688.676 1007.24Z" stroke="#373D3B" stroke-width="2" stroke-linecap="round" stroke-linejoin="round"/>
<path d="M985.971 1230.29L500.493 1194.33C389.757 1186.13 306.635 1089.71 314.837 978.97L860.678 1020.59C902.068 1023.74 942.797 1008.81 972.334 979.64L1028.68 923.998C1075.02 878.24 1138.88 854.742 1203.82 859.553L1368.95 871.783L1289.09 1049.65C1236.12 1167.63 1114.95 1239.84 985.971 1230.29Z" fill="white"/>
<path d="M985.971 1230.29L500.493 1194.33C389.757 1186.13 306.635 1089.71 314.837 978.97L860.678 1020.59C902.068 1023.74 942.797 1008.81 972.334 979.64L1028.68 923.998C1075.02 878.24 1138.88 854.742 1203.82 859.553L1368.95 871.783L1289.09 1049.65C1236.12 1167.63 1114.95 1239.84 985.971 1230.29Z" stroke="#373D3B" stroke-width="2" stroke-linecap="round" stroke-linejoin="round"/>
<path d="M583.037 999.418L367.627 983.464L392.656 645.541L608.066 661.496L583.037 999.418Z" stroke="#373D3B" stroke-width="2" stroke-linecap="round" stroke-linejoin="round"/>
<path d="M428.592 987.979L367.627 983.464L392.656 645.542L453.621 650.057L428.592 987.979Z" stroke="#373D3B" stroke-width="2" stroke-linecap="round" stroke-linejoin="round"/>
<path d="M428.592 987.979L367.627 983.464L392.656 645.542L453.621 650.057L428.592 987.979Z" fill="#373D3B"/>
<path d="M428.592 987.979L367.627 983.464L392.656 645.542L453.621 650.057L428.592 987.979Z" stroke="#373D3B" stroke-width="2" stroke-linecap="round" stroke-linejoin="round"/>
</g>
</g>
<path d="M239.508 1133.64C299.884 1133.64 299.886 1189.64 360.262 1189.64C420.636 1189.64 420.636 1133.64 481.01 1133.64C541.386 1133.64 541.388 1189.64 601.764 1189.64C662.14 1189.64 662.14 1133.64 722.516 1133.64C782.89 1133.64 782.89 1189.64 843.264 1189.64C903.64 1189.64 903.642 1133.64 964.018 1133.64C1024.4 1133.64 1024.4 1189.64 1084.78 1189.64C1145.16 1189.64 1145.16 1133.64 1205.54 1133.64C1264.03 1133.64 1265.86 1186.2 1320.81 1189.48" stroke="#373D3B" stroke-width="2" stroke-linecap="round" stroke-linejoin="round"/>
</g>
</g>
<defs>
<clipPath id="clip0_2109_56">
<rect width="1600" height="1600" fill="white"/>
</clipPath>
</defs>
</svg>
